<svg width="500" height="500" viewBox="0 0 500 500" fill="none" xmlns="http://www.w3.org/2000/svg">
<mask id="mask0" style="mask-type:alpha" maskUnits="userSpaceOnUse" x="0" y="0" width="500" height="500">
<circle cx="250" cy="250" r="250" fill="#FF8F8F"/>
</mask>
<g mask="url(#mask0)">
<g filter="url(#filter0_d)">
<path d="M220.823 -29.6048C245.326 -39.7542 272.857 -39.7542 297.36 -29.6048L423.389 22.5982C451.578 34.2746 472.894 58.1816 481.274 87.5199L519.841 222.532C524.969 240.484 524.969 259.513 519.841 277.465L481.275 412.477C472.894 441.815 451.578 465.722 423.389 477.399L297.36 529.602C272.857 539.751 245.326 539.751 220.823 529.602L88.4417 474.768C63.9388 464.618 44.4715 445.151 34.3221 420.648L-20.512 288.267C-30.6614 263.764 -30.6614 236.233 -20.512 211.73L34.3221 79.3489C44.4715 54.8461 63.9389 35.3787 88.4417 25.2293L220.823 -29.6048Z" fill="#FEFEFE"/>
</g>
<g filter="url(#filter1_d)">
<path d="M220.823 -29.6048C245.326 -39.7542 272.857 -39.7542 297.36 -29.6048L427.684 24.3773C453.396 35.0277 473.507 55.9113 483.18 82.0067L532.57 215.24C540.883 237.667 540.883 262.33 532.57 284.757L483.18 417.99C473.507 444.086 453.396 464.969 427.684 475.62L297.36 529.602C272.857 539.751 245.326 539.751 220.823 529.602L88.4416 474.768C63.9388 464.618 44.4715 445.151 34.3221 420.648L-20.512 288.267C-30.6614 263.764 -30.6614 236.233 -20.512 211.73L34.3221 79.3489C44.4715 54.8461 63.9389 35.3787 88.4417 25.2293L220.823 -29.6048Z" fill="#7E2E63"/>
</g>
<g filter="url(#filter2_d)">
<path d="M220.823 -29.6048C245.326 -39.7542 272.857 -39.7542 297.36 -29.6048L406.277 15.5105C443.645 30.9886 468.009 67.4522 468.009 107.898V249.999V392.099C468.009 432.545 443.645 469.008 406.277 484.487L297.36 529.602C272.857 539.751 245.326 539.751 220.823 529.602L88.4416 474.768C63.9388 464.618 44.4715 445.151 34.3221 420.648L-20.512 288.267C-30.6614 263.764 -30.6614 236.233 -20.512 211.73L34.3221 79.3489C44.4715 54.8461 63.9389 35.3787 88.4417 25.2293L220.823 -29.6048Z" fill="#89DF8C" fill-opacity="0.15" shape-rendering="crispEdges"/>
</g>
<g filter="url(#filter3_d)">
<path d="M220.823 -29.6048C245.326 -39.7542 272.857 -39.7542 297.36 -29.6048L390.318 8.9C435.228 27.5022 460.256 75.7051 449.633 123.14L426.119 228.146C422.896 242.536 422.896 257.461 426.119 271.851L449.633 376.857C460.256 424.292 435.228 472.495 390.318 491.097L297.36 529.602C272.857 539.751 245.326 539.751 220.823 529.602L88.4417 474.768C63.9389 464.618 44.4715 445.151 34.3221 420.648L-20.512 288.267C-30.6614 263.764 -30.6614 236.233 -20.512 211.73L34.3221 79.3489C44.4715 54.8461 63.9389 35.3787 88.4417 25.2293L220.823 -29.6048Z" fill="#89DF8C" fill-opacity="0.25" shape-rendering="crispEdges"/>
</g>
<g filter="url(#filter4_d)">
<path d="M220.823 -29.6048C245.326 -39.7542 272.857 -39.7542 297.36 -29.6048L365.868 -1.22784C420.546 21.4206 443.7 86.3395 415.696 138.478L381.212 202.681C365.341 232.23 365.341 267.767 381.212 297.316L415.696 361.519C443.7 413.658 420.546 478.576 365.868 501.225L297.36 529.602C272.857 539.751 245.326 539.751 220.823 529.602L88.4417 474.768C63.9389 464.618 44.4715 445.151 34.3221 420.648L-20.512 288.267C-30.6614 263.764 -30.6614 236.233 -20.512 211.73L34.3221 79.3489C44.4715 54.8461 63.9389 35.3787 88.4417 25.2293L220.823 -29.6048Z" fill="#89DF8C" fill-opacity="0.35" shape-rendering="crispEdges"/>
</g>
<g filter="url(#filter5_d)">
<path d="M220.823 -29.6048C245.326 -39.7542 272.857 -39.7542 297.36 -29.6048L338.458 -12.5812C401.91 13.7014 420.591 94.6552 375.072 146.084L341.76 183.721C308.269 221.56 308.269 278.437 341.76 316.276L375.072 353.913C420.591 405.342 401.91 486.296 338.458 512.578L297.36 529.602C272.857 539.751 245.326 539.751 220.823 529.602L88.4417 474.768C63.9389 464.618 44.4715 445.151 34.3221 420.648L-20.512 288.267C-30.6614 263.764 -30.6614 236.233 -20.512 211.73L34.3221 79.3489C44.4715 54.8461 63.9389 35.3787 88.4417 25.2293L220.823 -29.6048Z" fill="#89DF8C" fill-opacity="0.45" shape-rendering="crispEdges"/>
</g>
<g filter="url(#filter6_d)">
<path d="M220.823 -29.6048C245.326 -39.7542 272.857 -39.7542 297.36 -29.6048L308.983 -24.7903C379.881 4.57685 392.647 99.558 332.019 146.603L300.585 170.993C248.991 211.028 248.991 288.969 300.585 329.004L332.019 353.394C392.647 400.439 379.881 495.42 308.983 524.787L297.36 529.602C272.857 539.751 245.326 539.751 220.823 529.602L88.4417 474.768C63.9389 464.618 44.4715 445.151 34.3221 420.648L-20.512 288.267C-30.6614 263.764 -30.6614 236.233 -20.512 211.73L34.3221 79.3489C44.4715 54.8461 63.9389 35.3787 88.4417 25.2293L220.823 -29.6048Z" fill="#89DF8C" fill-opacity="0.55" shape-rendering="crispEdges"/>
</g>
<g filter="url(#filter7_d)">
<path d="M223.929 -30.8912C246.443 -40.2169 271.74 -40.2169 294.254 -30.8912C364.928 -1.61694 370.974 96.1522 304.444 133.91L253.138 163.029C185.616 201.35 185.616 298.647 253.138 336.968L304.444 366.087C370.974 403.845 364.928 501.614 294.254 530.888C271.74 540.214 246.443 540.214 223.929 530.888L88.4417 474.768C63.9389 464.618 44.4715 445.151 34.3221 420.648L-20.512 288.267C-30.6614 263.764 -30.6614 236.233 -20.512 211.73L34.3221 79.3489C44.4715 54.8461 63.9389 35.3787 88.4417 25.2293L223.929 -30.8912Z" fill="#89DF8C" fill-opacity="0.65" shape-rendering="crispEdges"/>
</g>
<g filter="url(#filter8_d)">
<path d="M228.01 -32.5819C247.911 -40.8251 270.271 -40.8251 290.172 -32.5819C356.548 -5.08835 357.164 88.7111 291.156 117.075L195.633 158.122C114.939 192.796 114.939 307.201 195.633 341.875L291.156 382.922C357.164 411.286 356.547 505.085 290.172 532.579C270.271 540.822 247.911 540.822 228.01 532.579L88.4418 474.768C63.9389 464.618 44.4715 445.151 34.3221 420.648L-20.512 288.267C-30.6614 263.764 -30.6614 236.233 -20.512 211.73L34.3221 79.3489C44.4715 54.8461 63.9389 35.3787 88.4417 25.2293L228.01 -32.5819Z" fill="#89DF8C"/>
</g>
</g>
<defs>
<filter id="filter0_d" x="-32.124" y="-37.2168" width="559.811" height="588.431" filterUnits="userSpaceOnUse" color-interpolation-filters="sRGB">
<feFlood flood-opacity="0" result="BackgroundImageFix"/>
<feColorMatrix in="SourceAlpha" type="matrix" values="0 0 0 0 0 0 0 0 0 0 0 0 0 0 0 0 0 0 127 0" result="hardAlpha"/>
<feOffset dy="10"/>
<feGaussianBlur stdDeviation="2"/>
<feComposite in2="hardAlpha" operator="out"/>
<feColorMatrix type="matrix" values="0 0 0 0 0.45 0 0 0 0 0.0157501 0 0 0 0 0.303897 0 0 0 0.45 0"/>
<feBlend mode="normal" in2="BackgroundImageFix" result="effect1_dropShadow"/>
<feBlend mode="normal" in="SourceGraphic" in2="effect1_dropShadow" result="shape"/>
</filter>
<filter id="filter1_d" x="-32.124" y="-37.2168" width="574.929" height="588.431" filterUnits="userSpaceOnUse" color-interpolation-filters="sRGB">
<feFlood flood-opacity="0" result="BackgroundImageFix"/>
<feColorMatrix in="SourceAlpha" type="matrix" values="0 0 0 0 0 0 0 0 0 0 0 0 0 0 0 0 0 0 127 0" result="hardAlpha"/>
<feOffset dy="10"/>
<feGaussianBlur stdDeviation="2"/>
<feComposite in2="hardAlpha" operator="out"/>
<feColorMatrix type="matrix" values="0 0 0 0 0.45 0 0 0 0 0.0157501 0 0 0 0 0.303897 0 0 0 0.45 0"/>
<feBlend mode="normal" in2="BackgroundImageFix" result="effect1_dropShadow"/>
<feBlend mode="normal" in="SourceGraphic" in2="effect1_dropShadow" result="shape"/>
</filter>
<filter id="filter2_d" x="-32.124" y="-37.2168" width="504.133" height="588.431" filterUnits="userSpaceOnUse" color-interpolation-filters="sRGB">
<feFlood flood-opacity="0" result="BackgroundImageFix"/>
<feColorMatrix in="SourceAlpha" type="matrix" values="0 0 0 0 0 0 0 0 0 0 0 0 0 0 0 0 0 0 127 0" result="hardAlpha"/>
<feOffset dy="10"/>
<feGaussianBlur stdDeviation="2"/>
<feComposite in2="hardAlpha" operator="out"/>
<feColorMatrix type="matrix" values="0 0 0 0 0.45 0 0 0 0 0.0157501 0 0 0 0 0.303897 0 0 0 0.45 0"/>
<feBlend mode="normal" in2="BackgroundImageFix" result="effect1_dropShadow"/>
<feBlend mode="normal" in="SourceGraphic" in2="effect1_dropShadow" result="shape"/>
</filter>
<filter id="filter3_d" x="-32.124" y="-37.2168" width="488.186" height="588.431" filterUnits="userSpaceOnUse" color-interpolation-filters="sRGB">
<feFlood flood-opacity="0" result="BackgroundImageFix"/>
<feColorMatrix in="SourceAlpha" type="matrix" values="0 0 0 0 0 0 0 0 0 0 0 0 0 0 0 0 0 0 127 0" result="hardAlpha"/>
<feOffset dy="10"/>
<feGaussianBlur stdDeviation="2"/>
<feComposite in2="hardAlpha" operator="out"/>
<feColorMatrix type="matrix" values="0 0 0 0 0.45 0 0 0 0 0.0157501 0 0 0 0 0.303897 0 0 0 0.45 0"/>
<feBlend mode="normal" in2="BackgroundImageFix" result="effect1_dropShadow"/>
<feBlend mode="normal" in="SourceGraphic" in2="effect1_dropShadow" result="shape"/>
</filter>
<filter id="filter4_d" x="-32.124" y="-37.2168" width="463.755" height="588.431" filterUnits="userSpaceOnUse" color-interpolation-filters="sRGB">
<feFlood flood-opacity="0" result="BackgroundImageFix"/>
<feColorMatrix in="SourceAlpha" type="matrix" values="0 0 0 0 0 0 0 0 0 0 0 0 0 0 0 0 0 0 127 0" result="hardAlpha"/>
<feOffset dy="10"/>
<feGaussianBlur stdDeviation="2"/>
<feComposite in2="hardAlpha" operator="out"/>
<feColorMatrix type="matrix" values="0 0 0 0 0.45 0 0 0 0 0.0157501 0 0 0 0 0.303897 0 0 0 0.45 0"/>
<feBlend mode="normal" in2="BackgroundImageFix" result="effect1_dropShadow"/>
<feBlend mode="normal" in="SourceGraphic" in2="effect1_dropShadow" result="shape"/>
</filter>
<filter id="filter5_d" x="-32.124" y="-37.2168" width="436.345" height="588.431" filterUnits="userSpaceOnUse" color-interpolation-filters="sRGB">
<feFlood flood-opacity="0" result="BackgroundImageFix"/>
<feColorMatrix in="SourceAlpha" type="matrix" values="0 0 0 0 0 0 0 0 0 0 0 0 0 0 0 0 0 0 127 0" result="hardAlpha"/>
<feOffset dy="10"/>
<feGaussianBlur stdDeviation="2"/>
<feComposite in2="hardAlpha" operator="out"/>
<feColorMatrix type="matrix" values="0 0 0 0 0.45 0 0 0 0 0.0157501 0 0 0 0 0.303897 0 0 0 0.45 0"/>
<feBlend mode="normal" in2="BackgroundImageFix" result="effect1_dropShadow"/>
<feBlend mode="normal" in="SourceGraphic" in2="effect1_dropShadow" result="shape"/>
</filter>
<filter id="filter6_d" x="-32.124" y="-37.2168" width="406.856" height="588.431" filterUnits="userSpaceOnUse" color-interpolation-filters="sRGB">
<feFlood flood-opacity="0" result="BackgroundImageFix"/>
<feColorMatrix in="SourceAlpha" type="matrix" values="0 0 0 0 0 0 0 0 0 0 0 0 0 0 0 0 0 0 127 0" result="hardAlpha"/>
<feOffset dy="10"/>
<feGaussianBlur stdDeviation="2"/>
<feComposite in2="hardAlpha" operator="out"/>
<feColorMatrix type="matrix" values="0 0 0 0 0.45 0 0 0 0 0.0157501 0 0 0 0 0.303897 0 0 0 0.45 0"/>
<feBlend mode="normal" in2="BackgroundImageFix" result="effect1_dropShadow"/>
<feBlend mode="normal" in="SourceGraphic" in2="effect1_dropShadow" result="shape"/>
</filter>
<filter id="filter7_d" x="-32.124" y="-37.8857" width="387.104" height="589.769" filterUnits="userSpaceOnUse" color-interpolation-filters="sRGB">
<feFlood flood-opacity="0" result="BackgroundImageFix"/>
<feColorMatrix in="SourceAlpha" type="matrix" values="0 0 0 0 0 0 0 0 0 0 0 0 0 0 0 0 0 0 127 0" result="hardAlpha"/>
<feOffset dy="10"/>
<feGaussianBlur stdDeviation="2"/>
<feComposite in2="hardAlpha" operator="out"/>
<feColorMatrix type="matrix" values="0 0 0 0 0.45 0 0 0 0 0.0157501 0 0 0 0 0.303897 0 0 0 0.45 0"/>
<feBlend mode="normal" in2="BackgroundImageFix" result="effect1_dropShadow"/>
<feBlend mode="normal" in="SourceGraphic" in2="effect1_dropShadow" result="shape"/>
</filter>
<filter id="filter8_d" x="-32.124" y="-38.7646" width="376.434" height="591.526" filterUnits="userSpaceOnUse" color-interpolation-filters="sRGB">
<feFlood flood-opacity="0" result="BackgroundImageFix"/>
<feColorMatrix in="SourceAlpha" type="matrix" values="0 0 0 0 0 0 0 0 0 0 0 0 0 0 0 0 0 0 127 0" result="hardAlpha"/>
<feOffset dy="10"/>
<feGaussianBlur stdDeviation="2"/>
<feComposite in2="hardAlpha" operator="out"/>
<feColorMatrix type="matrix" values="0 0 0 0 0.45 0 0 0 0 0.0157501 0 0 0 0 0.303897 0 0 0 0.45 0"/>
<feBlend mode="normal" in2="BackgroundImageFix" result="effect1_dropShadow"/>
<feBlend mode="normal" in="SourceGraphic" in2="effect1_dropShadow" result="shape"/>
</filter>
</defs>
</svg>
